# xmcd
#
# Track frame offsets:
#	150
#	23195
#	45877
#	73340
#	91007
#	110992
#	137085
#	158812
#	178652
#	201070
#	225600
#	247897
#	268292
#	285720
#	312280
#
# Disc length: 4430 seconds
#
# Revision: 1
# Processed by: cddbd v1.5.1PL0 Copyright (c) Steve Scherf et al.
# Submitted via: CDex 1.50Beta5
#
DISCID=d3114c0f
DTITLE=Various Artist - NEW MUSIC BEST COLLECTION 05
DYEAR=1900
DGENRE=Folk
TTITLE0=槇原敬之/どんなときも。
TTITLE1=さだまさし/夢の吹く頃
TTITLE2=さだまさし/娘へ-大和撫子養成ギブス篇-
TTITLE3=スターダストレビュー/夏のシルエット
TTITLE4=杉山清貴/いつも君を想ってる(Tom&JerryMex)
TTITLE5=杉山清貴/青空が目にしみる
TTITLE6=清水宏次朗/俺たちのシーズン
TTITLE7=清水宏次朗/TOUCH DOWN
TTITLE8=スターダストレビュー/君のすべてが悲しい
TTITLE9=上田知華/I WILL
TTITLE10=柳ジョージ&レイニーウッド/さらばミシシッピー
TTITLE11=増田けい子/すずめ
TTITLE12=時任三郎/川の流れを抱いて眠りたい
TTITLE13=さだまさし/関白宣言
TTITLE14=さだまさし/雨やどり
EXTD=
EXTT0=
EXTT1=
EXTT2=
EXTT3=
EXTT4=
EXTT5=
EXTT6=
EXTT7=
EXTT8=
EXTT9=
EXTT10=
EXTT11=
EXTT12=
EXTT13=
EXTT14=
PLAYORDER=
